<svg width="152" height="20" viewBox="0 0 152 20" fill="none" xmlns="http://www.w3.org/2000/svg">
<g clip-path="url(#clip0_17_782)">
<path d="M80.6134 12.5206V15.7861H77.0608V12.5206H80.6134Z" fill="black"/>
<path d="M3.5829 15.7859V7.53957H-0.000244141L0.0222278 5.1798H3.5829V4.47548C3.56849 3.64894 3.83219 2.83848 4.33796 2.15494C4.84133 1.47609 5.55519 0.948019 6.47955 0.570727C7.47166 0.177984 8.54332 -0.0163363 9.62338 0.000659879C10.5703 -0.00962957 11.5131 0.11616 12.4177 0.373475C13.1873 0.586247 13.901 0.942355 14.5144 1.41963C15.0694 1.86921 15.4065 2.37663 15.5256 2.94188L12.0537 3.79181C11.9149 3.38581 11.6254 3.03749 11.2357 2.80762C10.8045 2.54749 10.2975 2.41388 9.7818 2.42448C9.06195 2.42448 8.5099 2.6386 8.12561 3.06684C7.74132 3.49508 7.5496 4.05413 7.55035 4.74399V5.1798H14.7413V7.53957H7.55035V15.7849L3.5829 15.7859Z" fill="black"/>
<path d="M17.5781 15.7866V0.414368H21.522V15.7866H17.5781Z" fill="black"/>
<path d="M106.325 0.00897217V3.39013H102.33V0.00897217H106.325Z" fill="black"/>
<path d="M132.707 0.00897217V3.39013H128.711V0.00897217H132.707Z" fill="black"/>
<path d="M83.1025 15.7871V5.18098H87.0702V7.93631C87.3333 7.29729 87.7533 6.72286 88.2981 6.25815C88.8675 5.77894 89.534 5.40733 90.2591 5.16446C91.0713 4.89353 91.9304 4.76022 92.7951 4.77099C94.1323 4.77099 95.3039 5.03675 96.3107 5.56826C97.3075 6.09147 98.1203 6.86677 98.6521 7.80206C99.2074 8.76114 99.4853 9.85545 99.4859 11.0851V15.7871H95.5423V11.1884C95.5565 10.4581 95.3712 9.73613 95.0025 9.08885C94.6622 8.49405 94.1477 7.99882 93.5165 7.65955C92.8501 7.31344 92.0947 7.13833 91.3301 7.15246C90.5648 7.14169 89.8107 7.31662 89.143 7.65955C88.4982 7.99662 87.9683 8.49136 87.6107 9.08885C87.2259 9.7398 87.0326 10.4715 87.0486 11.2122V15.7902L83.1025 15.7871Z" fill="black"/>
<path d="M106.296 5.1814H102.33V15.7875H106.296V5.1814Z" fill="black"/>
<path d="M132.692 5.1814H128.726V19.9608H132.692V5.1814Z" fill="black"/>
<path d="M109.589 15.7871V5.18097H113.555V7.93631C113.818 7.29723 114.239 6.72286 114.784 6.25809C115.352 5.77906 116.017 5.40744 116.741 5.16445C117.554 4.89362 118.412 4.76031 119.276 4.77098C120.613 4.77098 121.786 5.03673 122.793 5.56824C123.791 6.09258 124.605 6.86934 125.137 7.80616C125.692 8.76524 125.97 9.85961 125.971 11.0892V15.7912H122.027V11.1884C122.041 10.4581 121.856 9.73625 121.489 9.08885C121.148 8.49246 120.633 7.99613 119.999 7.65643C119.334 7.3102 118.579 7.13503 117.814 7.14934C117.05 7.13845 116.296 7.31338 115.628 7.65643C114.983 7.99454 114.453 8.49038 114.096 9.08885C113.711 9.73961 113.517 10.4715 113.535 11.2121V15.7902L109.589 15.7871Z" fill="black"/>
<path d="M145.182 15.4559C143.95 15.9537 142.545 16.2025 140.968 16.2025C139.91 16.2167 138.857 16.0773 137.847 15.7894C136.922 15.514 136.204 15.1412 135.694 14.671C135.184 14.2008 134.928 13.6844 134.927 13.1219C134.927 12.5022 135.205 11.9291 135.761 11.4024C136.317 10.8757 137.093 10.442 138.09 10.1011C139.192 9.74247 140.34 9.51617 141.505 9.42779L147.207 9.0147C147.418 8.99232 147.62 8.92131 147.793 8.80816C147.868 8.76357 147.93 8.70247 147.974 8.63042C148.017 8.55831 148.04 8.47745 148.041 8.39507C148.041 8.17543 147.864 7.9651 147.512 7.76406C147.158 7.56375 146.678 7.41195 146.069 7.30761C145.411 7.20039 144.743 7.14852 144.074 7.15268C143.126 7.15427 142.179 7.23372 141.246 7.39024C140.346 7.53544 139.464 7.75739 138.61 8.05323C137.805 8.33758 137.168 8.64498 136.699 8.9755L135.212 7.04944C135.811 6.62051 136.592 6.23011 137.555 5.87832C138.573 5.51153 139.626 5.23758 140.702 5.0604C141.813 4.86903 142.942 4.77189 144.073 4.7702C145.415 4.7574 146.751 4.9283 148.038 5.27727C149.237 5.616 150.191 6.09794 150.902 6.72308C151.611 7.34822 151.965 8.07666 151.96 8.90834V15.7853H147.994V13.4678C147.352 14.2961 146.415 14.9587 145.182 15.4559ZM139.299 13.2706C139.57 13.4441 139.957 13.5742 140.46 13.6641C141.029 13.7594 141.606 13.8047 142.184 13.7993C143.134 13.8085 144.08 13.6934 144.993 13.4575C145.843 13.229 146.53 12.9216 147.056 12.5353C147.583 12.1491 147.899 11.7208 148.003 11.2506V10.8375L142.301 11.2506C141.703 11.296 141.112 11.3896 140.532 11.5304C140.097 11.6256 139.687 11.7982 139.325 12.0386C139.04 12.2451 138.897 12.4599 138.897 12.6809C138.897 12.9019 139.03 13.0981 139.299 13.2706Z" fill="black"/>
<path d="M46.5775 8.47395C47.1463 8.48581 47.6875 8.70184 48.0852 9.07584C48.4829 9.44979 48.7056 9.95193 48.7056 10.4749C48.7056 10.9978 48.4829 11.5 48.0852 11.8739C47.6875 12.2479 47.1463 12.4639 46.5775 12.4758H29.3663C28.7975 12.4639 28.2563 12.2479 27.8586 11.8739C27.4609 11.5 27.2382 10.9978 27.2382 10.4749C27.2382 9.95193 27.4609 9.44979 27.8586 9.07584C28.2563 8.70184 28.7975 8.48581 29.3663 8.47395H46.5775ZM46.5775 5.16922H29.3663C27.8372 5.17467 26.3725 5.73552 25.2914 6.72948C24.2104 7.72349 23.6008 9.06997 23.5955 10.4754C23.5999 11.8823 24.2099 13.2303 25.2923 14.2251C26.3746 15.2199 27.8413 15.7806 29.3719 15.7846H46.5775C48.108 15.7803 49.5744 15.2195 50.6564 14.2247C51.7385 13.23 52.3484 11.8821 52.3528 10.4754C52.3493 9.06826 51.7397 7.7197 50.6575 6.72441C49.5754 5.72915 48.1084 5.16815 46.5775 5.16406V5.16922Z" fill="black"/>
<path d="M57.3553 15.7857L54.4104 5.16406H58.343L60.5902 14.1716L62.7949 5.16406H68.2801L70.527 14.2748L72.753 5.16406H76.6416L73.8092 15.7857H67.6297L65.56 6.81645L63.4687 15.7836L57.3553 15.7857Z" fill="black"/>
</g>
<defs>
<clipPath id="clip0_17_782">
<rect width="152" height="20" fill="white"/>
</clipPath>
</defs>
</svg>
