<svg width="418" height="341" viewBox="0 0 418 341" fill="none" xmlns="http://www.w3.org/2000/svg">
<path d="M412.673 192.256C386.418 210.47 352.38 219.696 322.756 229.722C287.559 241.635 251.034 253.228 215.229 263.449C203.418 266.82 175.714 277.325 178.428 265.345C180.506 256.175 186.765 248.42 192.058 240.648C209.236 215.427 253.099 160.875 271.121 139.719C299.281 106.663 321.712 83.249 351.723 53.0548C359.978 44.7496 368.455 36.6683 376.862 28.5171C382.029 23.5076 385.876 16.5163 392.443 13.5731C396.157 11.9088 388.832 20.9077 386.461 24.2148C350.308 74.6411 317.567 113.822 271.765 159.91C221.786 210.201 125.901 304.575 53.1455 332.367C37.9967 338.154 7.39537 339.534 5.32011 323.451C1.22016 291.676 24.8979 261.997 40.4513 233.988C86.6722 150.752 151.809 73.4272 218.679 5.83C222.403 2.06508 210.275 12.2902 205.871 15.2312C144.357 56.3111 213.31 9.34902 143.887 54.4149" stroke="black" stroke-width="9.05809" stroke-linecap="round"/>
</svg>
