<svg width="121" height="38" viewBox="0 0 121 38" fill="none" xmlns="http://www.w3.org/2000/svg">
<rect x="0.61792" y="0.487427" width="36.534" height="36.534" rx="18.267" fill="black"/>
<path d="M54.9936 28.8369C59.7228 28.8369 62.3958 26.0874 62.3958 22.721C62.3958 18.738 60.0055 17.5302 55.3535 17.0163C53.066 16.7079 52.5005 16.2454 52.5005 15.2175C52.5005 14.2924 53.2202 13.65 54.6338 13.65C56.0731 13.65 56.8185 14.3181 56.9984 15.6286H61.8818C61.5477 11.7484 59.0546 9.89818 54.6338 9.89818C50.2387 9.89818 47.5143 12.3137 47.5143 15.6286C47.5143 19.329 49.2621 20.8708 54.4539 21.4876C56.6643 21.8216 57.3582 22.13 57.3582 23.2607C57.3582 24.34 56.5101 25.0852 54.9936 25.0852C52.809 25.0852 52.2178 24.0059 52.0893 22.6953H47.0774C47.2316 26.6784 49.8532 28.8369 54.9936 28.8369Z" fill="black"/>
<path d="M63.9755 33.0256H68.5762V27.1923C69.9394 28.5286 70.7094 28.8369 72.7399 28.8369C75.9013 28.8369 77.8203 26.5242 77.8203 21.8987V21.6932C77.8203 17.0934 75.9013 14.7292 72.7656 14.7292C70.7351 14.7292 70.2607 15.0376 68.9756 16.3225L68.3331 15.089H63.9755V33.0256ZM71.1207 25.3164C69.45 25.3164 68.4477 24.1601 68.4477 21.873V21.6675C68.4477 19.4061 69.45 18.1983 71.1207 18.1983C72.7399 18.1983 73.768 19.329 73.768 21.6932V21.8987C73.768 24.1087 72.8427 25.3164 71.1207 25.3164Z" fill="black"/>
<path d="M80.1056 28.5286H84.6805V9.17866H80.1056V28.5286Z" fill="black"/>
<path d="M87.1465 28.5286H91.7472V15.089H87.1465V28.5286ZM89.434 13.8041C90.8733 13.8041 91.9785 12.8019 91.9785 11.44C91.9785 10.0781 90.8733 9.05017 89.434 9.05017C87.9947 9.05017 86.9152 10.0781 86.9152 11.44C86.9152 12.8019 87.9947 13.8041 89.434 13.8041Z" fill="black"/>
<path d="M94.0841 28.5286H98.6847V20.9993C98.6847 19.2776 99.61 18.4553 100.972 18.4553C102.309 18.4553 102.9 19.2005 102.9 20.7167V28.5286H107.501V19.7916C107.501 16.3482 105.701 14.7292 103.106 14.7292C100.869 14.7292 99.4044 15.8599 98.6847 17.2475V15.089H94.0841V28.5286Z" fill="black"/>
<path d="M116.188 28.8369C120.249 28.8369 122.588 27.1152 123 24.083H118.682C118.502 24.9824 117.859 25.6762 116.343 25.6762C114.698 25.6762 113.67 24.6483 113.541 22.8752H123V21.6675C123 16.8364 119.838 14.7292 116.163 14.7292C112.102 14.7292 108.889 17.4531 108.889 21.7702V21.9758C108.889 26.37 111.973 28.8369 116.188 28.8369ZM113.593 20.2798C113.824 18.6609 114.775 17.7615 116.163 17.7615C117.653 17.7615 118.45 18.6609 118.527 20.2798H113.593Z" fill="black"/>
</svg>
