<svg width="153" height="36" viewBox="0 0 153 36" fill="none" xmlns="http://www.w3.org/2000/svg">
<g clip-path="url(#clip0_17_804)">
<path fill-rule="evenodd" clip-rule="evenodd" d="M1.43335 5.54892C0.5 7.38072 0.5 9.7787 0.5 14.5746V21.4253C0.5 26.2213 0.5 28.6192 1.43335 30.451C2.25435 32.0623 3.56438 33.3724 5.17569 34.1934C7.00749 35.1268 9.40547 35.1268 14.2014 35.1268H21.0521C25.848 35.1268 28.246 35.1268 30.0778 34.1934C31.6891 33.3724 32.9992 32.0623 33.8202 30.451C34.7535 28.6192 34.7535 26.2213 34.7535 21.4253V14.5746C34.7535 9.7787 34.7535 7.38072 33.8202 5.54892C32.9992 3.93761 31.6891 2.62758 30.0778 1.80658C28.246 0.87323 25.848 0.87323 21.0521 0.87323H14.2014C9.40547 0.87323 7.00749 0.87323 5.17569 1.80658C3.56438 2.62758 2.25435 3.93761 1.43335 5.54892ZM17.6268 26.5634C22.3562 26.5634 26.1901 22.7294 26.1901 18C26.1901 13.2705 22.3562 9.43661 17.6268 9.43661C12.8973 9.43661 9.06338 13.2705 9.06338 18C9.06338 22.7294 12.8973 26.5634 17.6268 26.5634Z" fill="#101828"/>
<path d="M55.0962 9.92316H57.9167V20.0952C57.9167 21.2102 57.6531 22.191 57.126 23.0373C56.604 23.8837 55.8692 24.5451 54.9213 25.0216C53.9735 25.4929 52.8662 25.7286 51.599 25.7286C50.3269 25.7286 49.217 25.4929 48.2692 25.0216C47.3214 24.5451 46.5866 23.8837 46.0645 23.0373C45.5425 22.191 45.2815 21.2102 45.2815 20.0952V9.92316H48.1019V19.8596C48.1019 20.5083 48.2439 21.0861 48.5277 21.5929C48.8166 22.0998 49.222 22.4975 49.7441 22.7864C50.2661 23.0703 50.8844 23.2122 51.599 23.2122C52.3137 23.2122 52.932 23.0703 53.4541 22.7864C53.9811 22.4975 54.3866 22.0998 54.6705 21.5929C54.9543 21.0861 55.0962 20.5083 55.0962 19.8596V9.92316Z" fill="#101828"/>
<path d="M63.6119 18.6508V25.4929H60.8599V13.8157H63.4903V15.7998H63.6271C63.8958 15.1461 64.3241 14.6265 64.9119 14.2414C65.505 13.8561 66.2373 13.6636 67.1091 13.6636C67.9149 13.6636 68.6169 13.8359 69.2149 14.1806C69.818 14.5252 70.2843 15.0244 70.6138 15.6782C70.9483 16.332 71.113 17.1252 71.108 18.0578V25.4929H68.3558V18.4835C68.3558 17.703 68.1531 17.0922 67.7476 16.6513C67.3473 16.2104 66.7923 15.9899 66.0827 15.9899C65.6012 15.9899 65.1729 16.0963 64.7979 16.3092C64.4279 16.517 64.1365 16.8186 63.9236 17.214C63.7159 17.6093 63.6119 18.0882 63.6119 18.6508Z" fill="#101828"/>
<path d="M79.7371 13.8157V15.9443H73.0242V13.8157H79.7371ZM74.6815 11.0179H77.4336V21.9807C77.4336 22.3506 77.4893 22.6345 77.6009 22.8321C77.7174 23.0247 77.8694 23.1565 78.057 23.2275C78.2445 23.2985 78.4523 23.3339 78.6804 23.3339C78.8527 23.3339 79.0099 23.3213 79.1518 23.2959C79.2988 23.2705 79.4102 23.2477 79.4863 23.2275L79.95 25.3789C79.803 25.4297 79.5927 25.4853 79.319 25.5462C79.0504 25.607 78.721 25.6425 78.3307 25.6526C77.6414 25.6729 77.0206 25.569 76.4681 25.3409C75.9157 25.1078 75.4773 24.7479 75.1529 24.2614C74.8336 23.7748 74.6765 23.1666 74.6815 22.4368V11.0179Z" fill="#101828"/>
<path d="M82.0385 25.4929V13.8157H84.7906V25.4929H82.0385ZM83.4222 12.1583C82.9863 12.1583 82.6113 12.0138 82.297 11.7249C81.9828 11.431 81.8257 11.0787 81.8257 10.6682C81.8257 10.2526 81.9828 9.90037 82.297 9.61148C82.6113 9.31752 82.9863 9.17053 83.4222 9.17053C83.8631 9.17053 84.2382 9.31752 84.5473 9.61148C84.8616 9.90037 85.0186 10.2526 85.0186 10.6682C85.0186 11.0787 84.8616 11.431 84.5473 11.7249C84.2382 12.0138 83.8631 12.1583 83.4222 12.1583Z" fill="#101828"/>
<path d="M93.4522 13.8157V15.9443H86.7393V13.8157H93.4522ZM88.3966 11.0179H91.1487V21.9807C91.1487 22.3506 91.2044 22.6345 91.316 22.8321C91.4325 23.0247 91.5845 23.1565 91.7721 23.2275C91.9596 23.2985 92.1674 23.3339 92.3955 23.3339C92.5678 23.3339 92.7249 23.3213 92.8669 23.2959C93.0139 23.2705 93.1253 23.2477 93.2014 23.2275L93.6651 25.3789C93.5181 25.4297 93.3078 25.4853 93.0341 25.5462C92.7655 25.607 92.436 25.6425 92.0458 25.6526C91.3565 25.6729 90.7357 25.569 90.1832 25.3409C89.6308 25.1078 89.1923 24.7479 88.868 24.2614C88.5487 23.7748 88.3916 23.1666 88.3966 22.4368V11.0179Z" fill="#101828"/>
<path d="M98.7564 9.92316V25.4929H96.0044V9.92316H98.7564Z" fill="#101828"/>
<path d="M106.756 25.721C105.585 25.721 104.574 25.4777 103.723 24.9912C102.876 24.4996 102.225 23.8052 101.769 22.9082C101.313 22.006 101.084 20.9442 101.084 19.7227C101.084 18.5216 101.313 17.4673 101.769 16.5601C102.23 15.6478 102.874 14.9382 103.7 14.4314C104.526 13.9195 105.496 13.6636 106.611 13.6636C107.331 13.6636 108.01 13.7801 108.649 14.0133C109.292 14.2414 109.861 14.5961 110.352 15.0776C110.849 15.5591 111.238 16.1724 111.523 16.9174C111.807 17.6574 111.948 18.5392 111.948 19.5631V20.4069H102.377V18.552H109.311C109.305 18.0248 109.192 17.5561 108.968 17.1454C108.745 16.7299 108.434 16.403 108.034 16.1648C107.637 15.9266 107.177 15.8074 106.649 15.8074C106.087 15.8074 105.593 15.9443 105.167 16.218C104.741 16.4866 104.409 16.8414 104.171 17.2824C103.938 17.7182 103.819 18.1971 103.814 18.7192V20.3385C103.814 21.0177 103.938 21.6005 104.186 22.087C104.435 22.5685 104.782 22.9386 105.228 23.1971C105.674 23.4504 106.196 23.5772 106.794 23.5772C107.194 23.5772 107.557 23.5214 107.882 23.4099C108.206 23.2933 108.486 23.1235 108.725 22.9006C108.963 22.6775 109.144 22.4013 109.265 22.0719L111.835 22.3608C111.672 23.0399 111.363 23.633 110.907 24.1397C110.456 24.6415 109.878 25.0318 109.174 25.3105C108.469 25.5842 107.663 25.721 106.756 25.721Z" fill="#101828"/>
<path d="M118.61 25.6982C117.693 25.6982 116.872 25.4625 116.146 24.9912C115.422 24.5199 114.849 23.8356 114.428 22.9385C114.008 22.0414 113.798 20.9517 113.798 19.6695C113.798 18.372 114.011 17.2773 114.436 16.3852C114.867 15.4882 115.447 14.8116 116.177 14.3554C116.907 13.8941 117.721 13.6635 118.618 13.6635C119.302 13.6635 119.864 13.7801 120.305 14.0133C120.746 14.2414 121.096 14.5175 121.355 14.842C121.613 15.1613 121.813 15.4628 121.956 15.7466H122.069V9.92316H124.829V25.4929H122.123V23.6532H121.956C121.813 23.9369 121.608 24.2386 121.339 24.5579C121.07 24.872 120.716 25.1407 120.275 25.3637C119.834 25.5867 119.279 25.6982 118.61 25.6982ZM119.378 23.4402C119.96 23.4402 120.457 23.2832 120.868 22.9689C121.279 22.6496 121.591 22.2062 121.804 21.6385C122.015 21.0709 122.123 20.4095 122.123 19.6543C122.123 18.8991 122.015 18.2427 121.804 17.6852C121.595 17.1278 121.287 16.6943 120.875 16.3852C120.47 16.0761 119.971 15.9215 119.378 15.9215C118.765 15.9215 118.253 16.0811 117.842 16.4004C117.432 16.7197 117.123 17.1607 116.915 17.7232C116.707 18.2858 116.603 18.9295 116.603 19.6543C116.603 20.3841 116.707 21.0353 116.915 21.6081C117.128 22.1758 117.439 22.6243 117.849 22.9537C118.266 23.2781 118.775 23.4402 119.378 23.4402Z" fill="#101828"/>
<path d="M143.008 9.92316H145.829V20.0952C145.829 21.2102 145.564 22.191 145.038 23.0373C144.515 23.8837 143.781 24.5451 142.833 25.0216C141.885 25.4929 140.778 25.7286 139.511 25.7286C138.239 25.7286 137.128 25.4929 136.181 25.0216C135.233 24.5451 134.498 23.8837 133.976 23.0373C133.454 22.191 133.194 21.2102 133.194 20.0952V9.92316H136.014V19.8596C136.014 20.5083 136.155 21.0861 136.439 21.5929C136.728 22.0998 137.134 22.4975 137.656 22.7864C138.177 23.0703 138.796 23.2122 139.511 23.2122C140.225 23.2122 140.844 23.0703 141.366 22.7864C141.893 22.4975 142.299 22.0998 142.582 21.5929C142.866 21.0861 143.008 20.5083 143.008 19.8596V9.92316Z" fill="#101828"/>
<path d="M151.714 9.92316V25.4929H148.895V9.92316H151.714Z" fill="#101828"/>
</g>
<defs>
<clipPath id="clip0_17_804">
<rect width="152" height="34.2535" fill="white" transform="translate(0.5 0.87323)"/>
</clipPath>
</defs>
</svg>
